<svg width="20" height="18" viewBox="0 0 20 18" fill="none" xmlns="http://www.w3.org/2000/svg">
<path d="M10.1 15.2534L10 15.3515L9.89 15.2534C5.14 11.0256 2 8.22997 2 5.3951C2 3.43324 3.5 1.96185 5.5 1.96185C7.04 1.96185 8.54 2.94278 9.07 4.27684H10.93C11.46 2.94278 12.96 1.96185 14.5 1.96185C16.5 1.96185 18 3.43324 18 5.3951C18 8.22997 14.86 11.0256 10.1 15.2534ZM14.5 0C12.76 0 11.09 0.79455 10 2.04033C8.91 0.79455 7.24 0 5.5 0C2.42 0 0 2.36403 0 5.3951C0 9.09319 3.4 12.1243 8.55 16.7052L10 18L11.45 16.7052C16.6 12.1243 20 9.09319 20 5.3951C20 2.36403 17.58 0 14.5 0Z" fill="#D76A2F"/>
</svg>
