<svg width="18" height="18" viewBox="0 0 18 18" fill="none" xmlns="http://www.w3.org/2000/svg">
<path d="M6.3 18C6.06131 18 5.83239 17.9052 5.6636 17.7364C5.49482 17.5676 5.4 17.3387 5.4 17.1V14.4H1.8C1.32261 14.4 0.864773 14.2104 0.527208 13.8728C0.189642 13.5352 0 13.0774 0 12.6V1.8C0 0.801 0.81 0 1.8 0H16.2C16.6774 0 17.1352 0.189642 17.4728 0.527208C17.8104 0.864773 18 1.32261 18 1.8V12.6C18 13.0774 17.8104 13.5352 17.4728 13.8728C17.1352 14.2104 16.6774 14.4 16.2 14.4H10.71L7.38 17.739C7.2 17.91 6.975 18 6.75 18H6.3ZM7.2 12.6V15.372L9.972 12.6H16.2V1.8H1.8V12.6H7.2Z" fill="#C1C0AD"/>
</svg>
