<svg width="25" height="25" viewBox="0 0 25 25" fill="none" xmlns="http://www.w3.org/2000/svg">
<path d="M15.2966 15.128L5.46864 19.7L10.0406 9.872L19.8686 5.3M12.6686 0.5C11.0928 0.5 9.53235 0.810389 8.07644 1.41345C6.62053 2.0165 5.29766 2.90042 4.18336 4.01472C1.93292 6.26516 0.66864 9.3174 0.66864 12.5C0.66864 15.6826 1.93292 18.7348 4.18336 20.9853C5.29766 22.0996 6.62053 22.9835 8.07644 23.5866C9.53235 24.1896 11.0928 24.5 12.6686 24.5C15.8512 24.5 18.9035 23.2357 21.1539 20.9853C23.4044 18.7348 24.6686 15.6826 24.6686 12.5C24.6686 10.9241 24.3583 9.36371 23.7552 7.9078C23.1521 6.45189 22.2682 5.12902 21.1539 4.01472C20.0396 2.90042 18.7167 2.0165 17.2608 1.41345C15.8049 0.810389 14.2445 0.5 12.6686 0.5M12.6686 11.18C12.3186 11.18 11.9828 11.3191 11.7353 11.5666C11.4877 11.8142 11.3486 12.1499 11.3486 12.5C11.3486 12.8501 11.4877 13.1858 11.7353 13.4334C11.9828 13.6809 12.3186 13.82 12.6686 13.82C13.0187 13.82 13.3545 13.6809 13.602 13.4334C13.8496 13.1858 13.9886 12.8501 13.9886 12.5C13.9886 12.1499 13.8496 11.8142 13.602 11.5666C13.3545 11.3191 13.0187 11.18 12.6686 11.18Z" fill="#F0F3E9"/>
</svg>
