<svg width="27" height="27" viewBox="0 0 27 27" fill="none" xmlns="http://www.w3.org/2000/svg">
<path d="M12.1061 25.5C10.3007 25.2685 8.57116 24.6318 7.04675 23.6377C5.52234 22.6435 4.24258 21.3176 3.30321 19.7591C2.36384 18.2006 1.7892 16.4499 1.62228 14.6381C1.45536 12.8262 1.70049 11.0001 2.33932 9.29631M24.8077 9.05845C25.4832 10.7493 25.7672 12.571 25.6384 14.3872C25.5096 16.2033 24.9714 17.9668 24.064 19.5455C23.1566 21.1241 21.9037 22.4771 20.399 23.5029C18.8943 24.5288 17.1769 25.2009 15.3755 25.469M3.93607 6.36587C5.05924 4.85606 6.52006 3.62975 8.2018 2.78488C9.88354 1.94001 11.7396 1.5 13.6218 1.5C15.5039 1.5 17.36 1.94001 19.0417 2.78488C20.7235 3.62975 22.1843 4.85606 23.3075 6.36587M21.0279 13.5438C21.0279 17.6356 17.7097 20.9526 13.6166 20.9526C9.52349 20.9526 6.20535 17.6356 6.20535 13.5438C6.20535 9.45195 9.52349 6.13489 13.6166 6.13489C17.7097 6.13489 21.0279 9.45195 21.0279 13.5438Z" stroke="#F0F3E9" stroke-width="2" stroke-miterlimit="10"/>
</svg>
