<svg width="1157" height="541" viewBox="0 0 1157 541" fill="none" xmlns="http://www.w3.org/2000/svg">
<g filter="url(#filter0_d_62_172)">
<path d="M290.358 150.36C314.222 109.027 373.882 109.027 397.745 150.36L499.781 327.09C523.644 368.423 493.815 420.09 446.087 420.09H242.017C194.289 420.09 164.459 368.423 188.323 327.09L290.358 150.36Z" fill="#E1E0CB" fill-opacity="0.7"/>
<path d="M136.526 339.041C95.1925 315.177 95.1925 255.518 136.526 231.654L313.256 129.619C354.589 105.755 406.256 135.585 406.256 183.313L406.256 387.383C406.256 435.11 354.589 464.94 313.256 441.076L136.526 339.041Z" fill="#D76A2F" fill-opacity="0.7"/>
<path d="M295.513 390.64C271.649 431.973 211.99 431.973 188.126 390.64L86.091 213.91C62.2272 172.577 92.057 120.91 139.785 120.91L343.855 120.91C391.582 120.91 421.412 172.577 397.548 213.91L295.513 390.64Z" fill="#416657" fill-opacity="0.7"/>
<path d="M686 229.631H694.738L726.543 302.095H727.242L753.92 229.631H762.658L725.611 312.813H723.047L686 229.631Z" fill="black"/>
<path d="M773.848 270.407C773.848 264.426 774.897 258.873 776.994 253.747C779.169 248.543 782.159 244.038 785.965 240.233C789.848 236.349 794.353 233.359 799.479 231.262C804.683 229.087 810.275 228 816.255 228C822.235 228 827.789 229.087 832.915 231.262C838.118 233.359 842.623 236.349 846.429 240.233C850.312 244.038 853.302 248.543 855.4 253.747C857.574 258.873 858.662 264.426 858.662 270.407C858.662 276.387 857.574 281.979 855.4 287.183C853.302 292.309 850.312 296.814 846.429 300.697C842.623 304.503 838.118 307.493 832.915 309.668C827.789 311.765 822.235 312.813 816.255 312.813C810.275 312.813 804.683 311.765 799.479 309.668C794.353 307.493 789.848 304.503 785.965 300.697C782.159 296.814 779.169 292.309 776.994 287.183C774.897 281.979 773.848 276.387 773.848 270.407ZM782.703 270.407C782.703 278.329 784.101 285.28 786.897 291.26C789.693 297.163 793.615 301.784 798.663 305.124C803.712 308.386 809.576 310.017 816.255 310.017C822.934 310.017 828.798 308.386 833.847 305.124C838.895 301.784 842.817 297.124 845.613 291.144C848.409 285.163 849.807 278.251 849.807 270.407C849.807 262.562 848.409 255.689 845.613 249.786C842.817 243.805 838.895 239.145 833.847 235.806C828.798 232.466 822.934 230.796 816.255 230.796C809.576 230.796 803.712 232.466 798.663 235.806C793.693 239.068 789.77 243.689 786.897 249.669C784.101 255.572 782.703 262.484 782.703 270.407Z" fill="black"/>
<path d="M896.585 311.182V276.698L867.692 229.631H876.546L902.526 272.271H903.225L923.962 229.631H932.817L904.973 275.067V311.182H896.585Z" fill="black"/>
<path d="M931.956 311.182L963.295 229.631H970.518L1001.86 311.182H993.353L978.907 272.97H952.461L940.461 311.182H931.956ZM964.111 235.689L953.276 270.174H977.858L964.81 235.689H964.111Z" fill="black"/>
<path d="M1060.28 272.504V269.708H1089.75V301.396C1086.18 304.969 1081.79 307.765 1076.59 309.784C1071.46 311.803 1065.71 312.813 1059.34 312.813C1052.82 312.813 1046.8 311.765 1041.29 309.668C1035.77 307.493 1030.96 304.503 1026.84 300.697C1022.72 296.814 1019.5 292.309 1017.17 287.183C1014.92 282.057 1013.79 276.465 1013.79 270.407C1013.79 264.348 1014.92 258.756 1017.17 253.63C1019.5 248.504 1022.72 244.038 1026.84 240.233C1030.96 236.349 1035.77 233.359 1041.29 231.262C1046.8 229.087 1052.82 228 1059.34 228C1062.14 228 1065.17 228.194 1068.43 228.583C1071.77 228.971 1074.95 229.515 1077.98 230.214C1081.01 230.835 1083.58 231.612 1085.67 232.544L1085.09 239.068H1084.39C1081.28 236.349 1077.56 234.291 1073.21 232.893C1068.86 231.495 1064.24 230.796 1059.34 230.796C1052.04 230.796 1045.64 232.466 1040.12 235.806C1034.61 239.068 1030.3 243.689 1027.19 249.669C1024.16 255.572 1022.65 262.484 1022.65 270.407C1022.65 278.329 1024.16 285.28 1027.19 291.26C1030.3 297.163 1034.61 301.784 1040.12 305.124C1045.64 308.386 1052.04 310.017 1059.34 310.017C1063.85 310.017 1068 309.396 1071.81 308.153C1075.69 306.91 1079.03 305.124 1081.83 302.794V272.504H1060.28Z" fill="black"/>
<path d="M1116.55 311.182V229.631H1152.08V235.34L1131.69 232.66C1128.12 232.194 1125.71 231.961 1124.47 231.961V267.494C1125.48 267.494 1127.89 267.378 1131.69 267.145L1150.8 265.98V271.339L1131.69 270.174C1127.89 269.941 1125.48 269.824 1124.47 269.824V308.852C1125.87 308.852 1128.32 308.619 1131.81 308.153L1152.43 305.474V311.182H1116.55Z" fill="black"/>
</g>
<defs>
<filter id="filter0_d_62_172" x="73.6919" y="119.36" width="1082.74" height="338.115" filterUnits="userSpaceOnUse" color-interpolation-filters="sRGB">
<feFlood flood-opacity="0" result="BackgroundImageFix"/>
<feColorMatrix in="SourceAlpha" type="matrix" values="0 0 0 0 0 0 0 0 0 0 0 0 0 0 0 0 0 0 127 0" result="hardAlpha"/>
<feOffset dy="4"/>
<feGaussianBlur stdDeviation="2"/>
<feComposite in2="hardAlpha" operator="out"/>
<feColorMatrix type="matrix" values="0 0 0 0 0 0 0 0 0 0 0 0 0 0 0 0 0 0 0.25 0"/>
<feBlend mode="normal" in2="BackgroundImageFix" result="effect1_dropShadow_62_172"/>
<feBlend mode="normal" in="SourceGraphic" in2="effect1_dropShadow_62_172" result="shape"/>
</filter>
</defs>
</svg>
