<svg width="600" height="600" viewBox="0 0 600 600" fill="none" xmlns="http://www.w3.org/2000/svg">
<g clip-path="url(#clip0_55_169)">
<path d="M297.358 88.36C321.222 47.0267 380.882 47.0268 404.745 88.3601L506.781 265.09C530.644 306.423 500.815 358.09 453.087 358.09H249.017C201.289 358.09 171.459 306.423 195.323 265.09L297.358 88.36Z" fill="#E1E0CB" fill-opacity="0.7"/>
<path d="M143.526 277.041C102.192 253.177 102.192 193.518 143.526 169.654L320.256 67.619C361.589 43.7552 413.256 73.585 413.256 121.313L413.256 325.383C413.256 373.11 361.589 402.94 320.256 379.076L143.526 277.041Z" fill="#D76A2F" fill-opacity="0.7"/>
<path d="M302.513 328.64C278.65 369.973 218.99 369.973 195.126 328.64L93.0913 151.91C69.2275 110.577 99.0573 58.91 146.785 58.91L350.855 58.91C398.583 58.91 428.412 110.577 404.549 151.91L302.513 328.64Z" fill="#416657" fill-opacity="0.7"/>
<path d="M67 457.631H75.7376L107.543 530.095H108.242L134.92 457.631H143.658L106.611 540.813H104.047L67 457.631Z" fill="black"/>
<path d="M154.848 498.407C154.848 492.426 155.897 486.873 157.994 481.747C160.169 476.543 163.159 472.038 166.965 468.233C170.848 464.349 175.353 461.359 180.479 459.262C185.683 457.087 191.275 456 197.255 456C203.235 456 208.789 457.087 213.915 459.262C219.118 461.359 223.623 464.349 227.429 468.233C231.312 472.038 234.302 476.543 236.4 481.747C238.574 486.873 239.662 492.426 239.662 498.407C239.662 504.387 238.574 509.979 236.4 515.183C234.302 520.309 231.312 524.814 227.429 528.697C223.623 532.503 219.118 535.493 213.915 537.668C208.789 539.765 203.235 540.813 197.255 540.813C191.275 540.813 185.683 539.765 180.479 537.668C175.353 535.493 170.848 532.503 166.965 528.697C163.159 524.814 160.169 520.309 157.994 515.183C155.897 509.979 154.848 504.387 154.848 498.407ZM163.703 498.407C163.703 506.329 165.101 513.28 167.897 519.26C170.693 525.163 174.615 529.784 179.663 533.124C184.712 536.386 190.576 538.017 197.255 538.017C203.934 538.017 209.798 536.386 214.847 533.124C219.895 529.784 223.817 525.124 226.613 519.144C229.409 513.163 230.807 506.251 230.807 498.407C230.807 490.562 229.409 483.689 226.613 477.786C223.817 471.805 219.895 467.145 214.847 463.806C209.798 460.466 203.934 458.796 197.255 458.796C190.576 458.796 184.712 460.466 179.663 463.806C174.693 467.068 170.77 471.689 167.897 477.669C165.101 483.572 163.703 490.484 163.703 498.407Z" fill="black"/>
<path d="M277.585 539.182V504.698L248.692 457.631H257.546L283.526 500.271H284.225L304.962 457.631H313.817L285.973 503.067V539.182H277.585Z" fill="black"/>
<path d="M312.956 539.182L344.295 457.631H351.518L382.857 539.182H374.353L359.907 500.97H333.461L321.461 539.182H312.956ZM345.111 463.689L334.276 498.174H358.858L345.81 463.689H345.111Z" fill="black"/>
<path d="M441.276 500.504V497.708H470.75V529.396C467.178 532.969 462.79 535.765 457.586 537.784C452.46 539.803 446.712 540.813 440.344 540.813C433.819 540.813 427.8 539.765 422.286 537.668C416.771 535.493 411.956 532.503 407.84 528.697C403.723 524.814 400.5 520.309 398.17 515.183C395.918 510.057 394.791 504.465 394.791 498.407C394.791 492.348 395.918 486.756 398.17 481.63C400.5 476.504 403.723 472.038 407.84 468.233C411.956 464.349 416.771 461.359 422.286 459.262C427.8 457.087 433.819 456 440.344 456C443.14 456 446.169 456.194 449.431 456.583C452.77 456.971 455.955 457.515 458.984 458.214C462.013 458.835 464.576 459.612 466.673 460.544L466.09 467.068H465.391C462.285 464.349 458.557 462.291 454.207 460.893C449.858 459.495 445.237 458.796 440.344 458.796C433.043 458.796 426.635 460.466 421.121 463.806C415.606 467.068 411.296 471.689 408.189 477.669C405.16 483.572 403.646 490.484 403.646 498.407C403.646 506.329 405.16 513.28 408.189 519.26C411.296 525.163 415.606 529.784 421.121 533.124C426.635 536.386 433.043 538.017 440.344 538.017C444.848 538.017 449.003 537.396 452.809 536.153C456.693 534.91 460.032 533.124 462.828 530.794V500.504H441.276Z" fill="black"/>
<path d="M497.549 539.182V457.631H533.082V463.34L512.695 460.66C509.122 460.194 506.714 459.961 505.472 459.961V495.494C506.481 495.494 508.889 495.378 512.695 495.145L531.801 493.98V499.339L512.695 498.174C508.889 497.941 506.481 497.824 505.472 497.824V536.852C506.87 536.852 509.316 536.619 512.811 536.153L533.432 533.474V539.182H497.549Z" fill="black"/>
</g>
<defs>
<clipPath id="clip0_55_169">
<rect width="600" height="600" fill="white"/>
</clipPath>
</defs>
</svg>
