<svg width="24" height="24" viewBox="0 0 24 24" fill="none" xmlns="http://www.w3.org/2000/svg">
<path d="M13.572 20.28C12.42 21.48 11.1 22.716 9.6 24C3.204 18.54 0 13.824 0 9.84C0 3.864 4.56 0 9.6 0C14.628 0 19.188 3.852 19.2 9.804L21.708 7.296L23.4 9L18 14.4L12.6 9L14.292 7.308L16.8 9.804C16.788 5.46 13.608 2.4 9.6 2.4C5.58 2.4 2.4 5.484 2.4 9.84C2.4 12.648 4.74 16.368 9.6 20.808C10.368 20.1 11.076 19.416 11.724 18.756C11.52 18.348 11.4 17.892 11.4 17.412C11.4 15.756 12.744 14.412 14.4 14.412C16.056 14.412 17.4 15.756 17.4 17.412C17.4 19.068 16.056 20.4 14.4 20.4C14.112 20.4 13.836 20.364 13.572 20.28Z" fill="#F0F3E9"/>
</svg>
