<svg width="46" height="41" viewBox="0 0 46 41" fill="none" xmlns="http://www.w3.org/2000/svg">
<path d="M23.2045 11C24.7441 8.33333 28.5931 8.33333 30.1327 11L38.793 26C40.3326 28.6667 38.4081 32 35.3289 32H18.0084C14.9292 32 13.0047 28.6667 14.5443 26L23.2045 11Z" fill="#F0F3E9" fill-opacity="0.5"/>
<path d="M9.66862 25.4641C7.00195 23.9245 7.00196 20.0755 9.66863 18.5359L24.6686 9.87564C27.3353 8.33604 30.6686 10.2605 30.6686 13.3397V30.6603C30.6686 33.7395 27.3353 35.664 24.6686 34.1244L9.66862 25.4641Z" fill="#F0F3E9" fill-opacity="0.5"/>
<path d="M21.4641 30C19.9245 32.6667 16.0755 32.6667 14.5359 30L5.87564 15C4.33604 12.3333 6.26055 9 9.33975 9L26.6603 9C29.7395 9 31.664 12.3333 30.1244 15L21.4641 30Z" fill="#F0F3E9" fill-opacity="0.5"/>
<line x1="41" y1="6" x2="41" y2="14" stroke="#F0F3E9" stroke-width="2" stroke-linecap="round"/>
<line x1="37" y1="10" x2="45" y2="10" stroke="#F0F3E9" stroke-width="2" stroke-linecap="round"/>
</svg>
